{
	"accessors": [
		{
			"bufferView": 0,
			"byteOffset": 0,
			"componentType": 5126,
			"count": 2512,
			"max": [
				355.443115234375,
				127.5719985961914,
				168.1529998779297
			],
			"min": [
				-355.443115234375,
				-127.5719985961914,
				-168.1529998779297
			],
			"type": "VEC3"
		},
		{
			"bufferView": 1,
			"byteOffset": 0,
			"componentType": 5126,
			"count": 2512,
			"max": [
				1.0,
				1.0,
				1.0
			],
			"min": [
				-1.0,
				-1.0,
				-1.0
			],
			"type": "VEC3"
		},
		{
			"bufferView": 2,
			"byteOffset": 0,
			"componentType": 5126,
			"count": 2512,
			"max": [
				1.0,
				1.0,
				1.0,
				1.0
			],
			"min": [
				-1.0,
				-1.0,
				-1.0,
				-1.0
			],
			"type": "VEC4"
		},
		{
			"bufferView": 3,
			"byteOffset": 0,
			"componentType": 5126,
			"count": 2512,
			"max": [
				0.9894000291824341,
				0.9937999844551086
			],
			"min": [
				0.00139999995008111,
				0.003000000026077032
			],
			"type": "VEC2"
		},
		{
			"bufferView": 4,
			"byteOffset": 0,
			"componentType": 5125,
			"count": 6780,
			"max": [
				2511.0
			],
			"min": [
				0.0
			],
			"type": "SCALAR"
		}
	],
	"asset": {
		"extras": {
			"author": "Lung_ong (https://sketchfab.com/cardboard)",
			"created": "Fri Sep 24 10:27:37 2021",
			"license": "CC-BY-4.0 (http://creativecommons.org/licenses/by/4.0/)",
			"source": "https://sketchfab.com/models/5d505fdbcc594cb3b3f1b30be8240ad7",
			"title": "Garbage Truck"
		},
		"generator": "Gestaltor 2021.5.2 Barley Community",
		"version": "2.0"
	},
	"bufferViews": [
		{
			"buffer": 0,
			"byteLength": 30144,
			"byteOffset": 0,
			"byteStride": 12,
			"target": 34962
		},
		{
			"buffer": 0,
			"byteLength": 30144,
			"byteOffset": 30144,
			"byteStride": 12,
			"target": 34962
		},
		{
			"buffer": 0,
			"byteLength": 40192,
			"byteOffset": 60288,
			"byteStride": 16,
			"target": 34962
		},
		{
			"buffer": 0,
			"byteLength": 20096,
			"byteOffset": 100480,
			"byteStride": 8,
			"target": 34962
		},
		{
			"buffer": 0,
			"byteLength": 27120,
			"byteOffset": 120576,
			"target": 34963
		}
	],
	"buffers": [
		{
			"byteLength": 147696,
			"uri": "scene.bin"
		}
	],
	"images": [
		{
			"mimeType": "image/jpeg",
			"uri": "textures/04___Default_emissive.jpeg"
		},
		{
			"mimeType": "image/jpeg",
			"uri": "textures/04___Default_baseColor.jpeg"
		}
	],
	"materials": [
		{
			"doubleSided": true,
			"emissiveFactor": [
				0.0,
				0.0,
				0.0
			],
			"emissiveTexture": {
				"index": 0,
				"texCoord": 0
			},
			"name": "04___Default",
			"pbrMetallicRoughness": {
				"baseColorFactor": [
					1.0,
					1.0,
					1.0,
					1.0
				],
				"baseColorTexture": {
					"index": 1,
					"texCoord": 0
				},
				"metallicFactor": 0.0,
				"roughnessFactor": 0.6
			}
		}
	],
	"meshes": [
		{
			"primitives": [
				{
					"attributes": {
						"NORMAL": 1,
						"POSITION": 0,
						"TANGENT": 2,
						"TEXCOORD_0": 3
					},
					"indices": 4,
					"material": 0,
					"mode": 4
				}
			]
		}
	],
	"nodes": [
		{
			"children": [
				1
			],
			"matrix": [
				1.0,
				0.0,
				0.0,
				0.0,
				0.0,
				2.220446049250313e-16,
				-1.0,
				0.0,
				0.0,
				1.0,
				2.220446049250313e-16,
				0.0,
				0.0,
				0.0,
				0.0,
				1.0
			],
			"name": "RootNode (gltf orientation matrix)"
		},
		{
			"children": [
				2
			],
			"name": "RootNode (model correction matrix)",
			"rotation": [
				0.0,
				0.0,
				0.7071067811865475,
				0.7071067811865475
			],
			"scale": [
				1.0,
				1.0,
				1.0
			]
		},
		{
			"children": [
				3
			],
			"name": "Garbage Truck1.obj.cleaner"
		},
		{
			"mesh": 0,
			"name": "",
			"translation": [
				1.0222518874052067e-05,
				6.093096765009206e-13,
				171.50538635253906
			]
		}
	],
	"samplers": [
		{
			"magFilter": 9729,
			"minFilter": 9987,
			"wrapS": 10497,
			"wrapT": 10497
		}
	],
	"scene": 0,
	"scenes": [
		{
			"name": "OSG_Scene",
			"nodes": [
				0
			]
		}
	],
	"textures": [
		{
			"sampler": 0,
			"source": 0
		},
		{
			"sampler": 0,
			"source": 1
		}
	]
}